<?xml version="1.0" encoding="UTF-8"?>
<svg xmlns="http://www.w3.org/2000/svg" viewBox="0 0 1200 900" font-family="'SF Pro Display','Inter',system-ui,sans-serif">
  <defs>
    <linearGradient id="bg" x1="0" y1="0" x2="0" y2="1">
      <stop offset="0%" stop-color="#0d1117"/>
      <stop offset="100%" stop-color="#161b22"/>
    </linearGradient>
    <linearGradient id="g1" x1="0" y1="0" x2="1" y2="1">
      <stop offset="0%" stop-color="#58a6ff"/>
      <stop offset="100%" stop-color="#1f6feb"/>
    </linearGradient>
    <linearGradient id="g2" x1="0" y1="0" x2="1" y2="1">
      <stop offset="0%" stop-color="#3fb950"/>
      <stop offset="100%" stop-color="#238636"/>
    </linearGradient>
    <linearGradient id="g3" x1="0" y1="0" x2="1" y2="1">
      <stop offset="0%" stop-color="#f78166"/>
      <stop offset="100%" stop-color="#da3633"/>
    </linearGradient>
    <linearGradient id="g4" x1="0" y1="0" x2="1" y2="1">
      <stop offset="0%" stop-color="#d2a8ff"/>
      <stop offset="100%" stop-color="#8b5cf6"/>
    </linearGradient>
    <linearGradient id="g5" x1="0" y1="0" x2="1" y2="1">
      <stop offset="0%" stop-color="#ffa657"/>
      <stop offset="100%" stop-color="#d29922"/>
    </linearGradient>
    <linearGradient id="g6" x1="0" y1="0" x2="1" y2="1">
      <stop offset="0%" stop-color="#79c0ff"/>
      <stop offset="100%" stop-color="#388bfd"/>
    </linearGradient>
    <filter id="shadow">
      <feDropShadow dx="0" dy="2" stdDeviation="4" flood-opacity="0.3" flood-color="#000"/>
    </filter>
    <marker id="arrow" viewBox="0 0 10 6" refX="10" refY="3" markerWidth="8" markerHeight="6" orient="auto">
      <path d="M0,0 L10,3 L0,6 Z" fill="#8b949e"/>
    </marker>
    <marker id="arrowBlue" viewBox="0 0 10 6" refX="10" refY="3" markerWidth="8" markerHeight="6" orient="auto">
      <path d="M0,0 L10,3 L0,6 Z" fill="#58a6ff"/>
    </marker>
  </defs>

  <!-- Background -->
  <rect width="1200" height="900" fill="url(#bg)" rx="12"/>

  <!-- Title -->
  <text x="600" y="40" text-anchor="middle" fill="#f0f6fc" font-size="22" font-weight="700">Hermes Agent — System Architecture</text>
  <text x="600" y="62" text-anchor="middle" fill="#8b949e" font-size="13">108 Skills · 10 MCP Servers · 6 Cron Jobs · 5-Layer Memory · Multi-Agent Team</text>

  <!-- ===== User Layer ===== -->
  <rect x="420" y="80" width="360" height="50" rx="25" fill="url(#g1)" filter="url(#shadow)" opacity="0.9"/>
  <text x="600" y="110" text-anchor="middle" fill="#fff" font-size="15" font-weight="600">👤 Feishu / CLI / API / Discord / Telegram</text>

  <!-- Arrow: User → Gateway -->
  <line x1="600" y1="130" x2="600" y2="160" stroke="#58a6ff" stroke-width="2" marker-end="url(#arrowBlue)"/>

  <!-- ===== Gateway ===== -->
  <rect x="400" y="160" width="400" height="50" rx="10" fill="#21262d" stroke="#30363d" stroke-width="1.5" filter="url(#shadow)"/>
  <text x="600" y="190" text-anchor="middle" fill="#f0f6fc" font-size="15" font-weight="600">⚡ Hermes Gateway (run.py / cli.py)</text>

  <!-- Arrow: Gateway → 3 branches -->
  <line x1="500" y1="210" x2="200" y2="260" stroke="#8b949e" stroke-width="1.5" marker-end="url(#arrow)"/>
  <line x1="600" y1="210" x2="600" y2="260" stroke="#8b949e" stroke-width="1.5" marker-end="url(#arrow)"/>
  <line x1="700" y1="210" x2="1000" y2="260" stroke="#8b949e" stroke-width="1.5" marker-end="url(#arrow)"/>

  <!-- ===== AIAgent ===== -->
  <rect x="50" y="260" width="300" height="200" rx="10" fill="#21262d" stroke="#58a6ff" stroke-width="1.5" filter="url(#shadow)"/>
  <text x="200" y="285" text-anchor="middle" fill="#58a6ff" font-size="14" font-weight="700">🤖 AIAgent (run_agent.py)</text>
  <text x="70" y="310" fill="#c9d1d9" font-size="11">├─ prompt_builder</text>
  <text x="70" y="328" fill="#c9d1d9" font-size="11">├─ context_compress</text>
  <text x="70" y="346" fill="#c9d1d9" font-size="11">├─ memory_manager</text>
  <text x="70" y="364" fill="#c9d1d9" font-size="11">├─ skill_commands</text>
  <text x="70" y="382" fill="#c9d1d9" font-size="11">├─ smart_routing</text>
  <text x="70" y="400" fill="#c9d1d9" font-size="11">└─ on_memory_write (L1+L2)</text>
  <rect x="70" y="415" width="260" height="30" rx="6" fill="#161b22" stroke="#30363d" stroke-width="1"/>
  <text x="200" y="435" text-anchor="middle" fill="#3fb950" font-size="10" font-weight="600">108 Skills · delegate_task · memory_recall</text>

  <!-- ===== MCP Client ===== -->
  <rect x="400" y="260" width="400" height="200" rx="10" fill="#21262d" stroke="#3fb950" stroke-width="1.5" filter="url(#shadow)"/>
  <text x="600" y="285" text-anchor="middle" fill="#3fb950" font-size="14" font-weight="700">🔌 MCP Client (10 Servers)</text>

  <!-- Row 1 -->
  <rect x="420" y="295" width="110" height="24" rx="5" fill="#0d1117" stroke="#238636" stroke-width="1"/>
  <text x="475" y="311" text-anchor="middle" fill="#3fb950" font-size="10">deerflow :1933</text>
  <rect x="540" y="295" width="110" height="24" rx="5" fill="#0d1117" stroke="#238636" stroke-width="1"/>
  <text x="595" y="311" text-anchor="middle" fill="#3fb950" font-size="10">deepcode :8000</text>
  <rect x="660" y="295" width="120" height="24" rx="5" fill="#0d1117" stroke="#238636" stroke-width="1"/>
  <text x="720" y="311" text-anchor="middle" fill="#3fb950" font-size="10">deeptutor :8001</text>

  <!-- Row 2 -->
  <rect x="420" y="325" width="110" height="24" rx="5" fill="#0d1117" stroke="#238636" stroke-width="1"/>
  <text x="475" y="341" text-anchor="middle" fill="#3fb950" font-size="10">hindsight :18888</text>
  <rect x="540" y="325" width="110" height="24" rx="5" fill="#0d1117" stroke="#238636" stroke-width="1"/>
  <text x="595" y="341" text-anchor="middle" fill="#3fb950" font-size="10">openviking :1934</text>
  <rect x="660" y="325" width="120" height="24" rx="5" fill="#0d1117" stroke="#238636" stroke-width="1"/>
  <text x="720" y="341" text-anchor="middle" fill="#3fb950" font-size="10">browser-harness</text>

  <!-- Row 3 -->
  <rect x="420" y="355" width="110" height="24" rx="5" fill="#0d1117" stroke="#238636" stroke-width="1"/>
  <text x="475" y="371" text-anchor="middle" fill="#3fb950" font-size="10">sirchmunk</text>
  <rect x="540" y="355" width="110" height="24" rx="5" fill="#0d1117" stroke="#238636" stroke-width="1"/>
  <text x="595" y="371" text-anchor="middle" fill="#3fb950" font-size="10">simplemem</text>
  <rect x="660" y="355" width="120" height="24" rx="5" fill="#0d1117" stroke="#238636" stroke-width="1"/>
  <text x="720" y="371" text-anchor="middle" fill="#3fb950" font-size="10">simplemem_evo</text>

  <!-- Row 4 -->
  <rect x="420" y="385" width="110" height="24" rx="5" fill="#0d1117" stroke="#238636" stroke-width="1"/>
  <text x="475" y="401" text-anchor="middle" fill="#3fb950" font-size="10">skills-quality</text>
  <rect x="540" y="385" width="110" height="24" rx="5" fill="#0d1117" stroke="#238636" stroke-width="1"/>
  <text x="595" y="401" text-anchor="middle" fill="#3fb950" font-size="10">beads</text>

  <!-- ===== Tool Registry ===== -->
  <rect x="850" y="260" width="300" height="200" rx="10" fill="#21262d" stroke="#f78166" stroke-width="1.5" filter="url(#shadow)"/>
  <text x="1000" y="285" text-anchor="middle" fill="#f78166" font-size="14" font-weight="700">🛠️ Tool Registry (50+)</text>
  <text x="870" y="310" fill="#c9d1d9" font-size="11">├─ terminal / file / patch</text>
  <text x="870" y="328" fill="#c9d1d9" font-size="11">├─ web / browse / search</text>
  <text x="870" y="346" fill="#c9d1d9" font-size="11">├─ vision / image_gen</text>
  <text x="870" y="364" fill="#c9d1d9" font-size="11">├─ delegation / cronjob</text>
  <text x="870" y="382" fill="#c9d1d9" font-size="11">├─ memory_recall / viking_*</text>
  <text x="870" y="400" fill="#c9d1d9" font-size="11">├─ send_message / tts</text>
  <text x="870" y="418" fill="#c9d1d9" font-size="11">└─ skill_manage / todo</text>

  <!-- ===== Multi-Agent Team ===== -->
  <rect x="50" y="490" width="560" height="150" rx="10" fill="#21262d" stroke="#d2a8ff" stroke-width="1.5" filter="url(#shadow)"/>
  <text x="330" y="515" text-anchor="middle" fill="#d2a8ff" font-size="14" font-weight="700">👥 Multi-Agent Team (Phase 1-3 Complete)</text>

  <!-- L0 Lead -->
  <rect x="230" y="525" width="200" height="28" rx="6" fill="#8b5cf6" opacity="0.3" stroke="#d2a8ff" stroke-width="1"/>
  <text x="330" y="544" text-anchor="middle" fill="#d2a8ff" font-size="11" font-weight="600">L0 Lead (hermes-agent)</text>

  <!-- Profiles -->
  <rect x="70" y="565" width="150" height="28" rx="6" fill="#0d1117" stroke="#8b5cf6" stroke-width="1"/>
  <text x="145" y="584" text-anchor="middle" fill="#d2a8ff" font-size="10">👨‍💻 Coder (SOUL.md)</text>
  <rect x="235" y="565" width="160" height="28" rx="6" fill="#0d1117" stroke="#8b5cf6" stroke-width="1"/>
  <text x="315" y="584" text-anchor="middle" fill="#d2a8ff" font-size="10">🔍 Researcher (SOUL.md)</text>
  <rect x="410" y="565" width="160" height="28" rx="6" fill="#0d1117" stroke="#8b5cf6" stroke-width="1"/>
  <text x="490" y="584" text-anchor="middle" fill="#d2a8ff" font-size="10">🔎 Reviewer (SOUL.md)</text>

  <!-- Mailbox + Cron -->
  <rect x="70" y="605" width="250" height="24" rx="5" fill="#0d1117" stroke="#6e40c9" stroke-width="1"/>
  <text x="195" y="621" text-anchor="middle" fill="#8b949e" font-size="10">📫 Mailbox v2 · 4 collaboration patterns</text>
  <rect x="340" y="605" width="250" height="24" rx="5" fill="#0d1117" stroke="#6e40c9" stroke-width="1"/>
  <text x="465" y="621" text-anchor="middle" fill="#8b949e" font-size="10">⏰ L3 Cron: security/standup/learner</text>

  <!-- ===== Memory Layers ===== -->
  <rect x="650" y="490" width="500" height="150" rx="10" fill="#21262d" stroke="#ffa657" stroke-width="1.5" filter="url(#shadow)"/>
  <text x="900" y="515" text-anchor="middle" fill="#ffa657" font-size="14" font-weight="700">🧠 5-Layer Memory Architecture</text>

  <!-- L0-L4 boxes -->
  <rect x="665" y="525" width="90" height="40" rx="5" fill="#0d1117" stroke="#ffa657" stroke-width="1"/>
  <text x="710" y="542" text-anchor="middle" fill="#ffa657" font-size="10" font-weight="600">L0</text>
  <text x="710" y="556" text-anchor="middle" fill="#8b949e" font-size="8">memory{}</text>

  <rect x="765" y="525" width="90" height="40" rx="5" fill="#0d1117" stroke="#ffa657" stroke-width="1"/>
  <text x="810" y="542" text-anchor="middle" fill="#ffa657" font-size="10" font-weight="600">L1</text>
  <text x="810" y="556" text-anchor="middle" fill="#8b949e" font-size="8">SimpleMem</text>

  <rect x="865" y="525" width="110" height="40" rx="5" fill="#0d1117" stroke="#ffa657" stroke-width="1"/>
  <text x="920" y="542" text-anchor="middle" fill="#ffa657" font-size="10" font-weight="600">L2</text>
  <text x="920" y="556" text-anchor="middle" fill="#8b949e" font-size="8">OpenViking+Hindsight</text>

  <rect x="985" y="525" width="90" height="40" rx="5" fill="#0d1117" stroke="#ffa657" stroke-width="1"/>
  <text x="1030" y="542" text-anchor="middle" fill="#ffa657" font-size="10" font-weight="600">L3</text>
  <text x="1030" y="556" text-anchor="middle" fill="#8b949e" font-size="8">Evolution</text>

  <rect x="1085" y="525" width="55" height="40" rx="5" fill="#0d1117" stroke="#ffa657" stroke-width="1"/>
  <text x="1112" y="542" text-anchor="middle" fill="#ffa657" font-size="10" font-weight="600">L4</text>
  <text x="1112" y="556" text-anchor="middle" fill="#8b949e" font-size="8">Honcho</text>

  <!-- Write/Read labels -->
  <rect x="665" y="580" width="240" height="24" rx="5" fill="#0d1117" stroke="#d29922" stroke-width="1"/>
  <text x="785" y="596" text-anchor="middle" fill="#ffa657" font-size="10">✏️ Write: L0/L1即时 → L2双路径 → L3独立</text>
  <rect x="920" y="580" width="220" height="24" rx="5" fill="#0d1117" stroke="#d29922" stroke-width="1"/>
  <text x="1030" y="596" text-anchor="middle" fill="#ffa657" font-size="10">📖 Read: memory_recall 统一L2→Hindsight→L3</text>

  <!-- ===== SkillClaw + LLM ===== -->
  <!-- Arrow down to SkillClaw -->
  <line x1="600" y1="460" x2="600" y2="680" stroke="#58a6ff" stroke-width="2" marker-end="url(#arrowBlue)" stroke-dasharray="4,3"/>

  <!-- SkillClaw -->
  <rect x="370" y="680" width="460" height="60" rx="10" fill="#21262d" stroke="#58a6ff" stroke-width="1.5" filter="url(#shadow)"/>
  <text x="600" y="705" text-anchor="middle" fill="#58a6ff" font-size="14" font-weight="700">🔀 SkillClaw Proxy (:30000)</text>
  <text x="600" y="725" text-anchor="middle" fill="#8b949e" font-size="11">多租户路由 · round_robin 负载 · key-reloader 热重载 · evolve 端口</text>

  <!-- Arrow to LLM -->
  <line x1="600" y1="740" x2="600" y2="770" stroke="#58a6ff" stroke-width="2" marker-end="url(#arrowBlue)"/>

  <!-- LLM -->
  <rect x="400" y="770" width="400" height="50" rx="25" fill="url(#g1)" filter="url(#shadow)" opacity="0.9"/>
  <text x="600" y="800" text-anchor="middle" fill="#fff" font-size="15" font-weight="600">🧬 GLM-5.1 (Volcengine Ark)</text>

  <!-- ===== Token Compression ===== -->
  <rect x="50" y="680" width="280" height="60" rx="10" fill="#21262d" stroke="#79c0ff" stroke-width="1.5" filter="url(#shadow)"/>
  <text x="190" y="705" text-anchor="middle" fill="#79c0ff" font-size="13" font-weight="700">🗜️ Token Compression</text>
  <text x="190" y="725" text-anchor="middle" fill="#8b949e" font-size="10">rtk v0.39.0 (CLI 60-90%) · caveman (LLM text)</text>

  <!-- ===== Cron Jobs ===== -->
  <rect x="870" y="680" width="280" height="100" rx="10" fill="#21262d" stroke="#f78166" stroke-width="1.5" filter="url(#shadow)"/>
  <text x="1010" y="705" text-anchor="middle" fill="#f78166" font-size="13" font-weight="700">⏰ 6 Cron Jobs</text>
  <text x="890" y="725" fill="#c9d1d9" font-size="9">evolver-bridge /4h</text>
  <text x="890" y="740" fill="#c9d1d9" font-size="9">openviking-backup 03:00</text>
  <text x="890" y="755" fill="#c9d1d9" font-size="9">hindsight-cleanup 04:00</text>
  <text x="1040" y="725" fill="#c9d1d9" font-size="9">security-patrol 09:00</text>
  <text x="1040" y="740" fill="#c9d1d9" font-size="9">anthropic-learner 09:30</text>
  <text x="1040" y="755" fill="#c9d1d9" font-size="9">team-standup 20:00</text>

  <!-- ===== Docker Services ===== -->
  <rect x="870" y="800" width="280" height="60" rx="10" fill="#21262d" stroke="#3fb950" stroke-width="1.5" filter="url(#shadow)"/>
  <text x="1010" y="825" text-anchor="middle" fill="#3fb950" font-size="13" font-weight="700">🐳 Docker Services</text>
  <text x="1010" y="845" text-anchor="middle" fill="#8b949e" font-size="10">Honcho · Hindsight · DeerFlow · Coze · Letta</text>

  <!-- ===== CTF ===== -->
  <rect x="50" y="770" width="280" height="50" rx="10" fill="#21262d" stroke="#d2a8ff" stroke-width="1.5" filter="url(#shadow)"/>
  <text x="190" y="793" text-anchor="middle" fill="#d2a8ff" font-size="13" font-weight="700">🚩 CTF (4 repos + 4 skills)</text>
  <text x="190" y="810" text-anchor="middle" fill="#8b949e" font-size="10">ctf-master · pwn · crypto · toolkit</text>

  <!-- Footer -->
  <text x="600" y="880" text-anchor="middle" fill="#484f58" font-size="10">Hermes Agent v0.10.0 · Fork by Nazicc · MIT License</text>
</svg>